<?xml version="1.0" encoding="utf-8"?>
<!-- Generator: Adobe Illustrator 26.0.2, SVG Export Plug-In . SVG Version: 6.00 Build 0)  -->
<svg version="1.1" id="Layer_1" xmlns="http://www.w3.org/2000/svg" xmlns:xlink="http://www.w3.org/1999/xlink" x="0px" y="0px"
	 viewBox="0 0 370 100" style="enable-background:new 0 0 370 100;" xml:space="preserve">
<style type="text/css">
	.st0{fill:#0088FF;}
	.st1{fill:#FF00FF;}
	.st2{fill:#FFFFFF;}
	.st3{fill:#0026F5;}
</style>
<g>
	<path class="st0" d="M328.59,18.08H185.51c-21.79,0-39.46,17.67-39.46,39.46v0c0,21.79,17.67,39.46,39.46,39.46h143.08
		c21.79,0,39.46-17.67,39.46-39.46v0C368.05,35.74,350.38,18.08,328.59,18.08z"/>
	<path class="st1" d="M184.49,3H41.41C19.62,3,1.95,20.67,1.95,42.46v0c0,21.79,17.67,39.46,39.46,39.46h143.08
		c21.79,0,39.46-17.67,39.46-39.46v0C223.95,20.67,206.28,3,184.49,3z"/>
	<g>
		<path class="st2" d="M57.13,52.93c-1.27,0.56-3.67,1.03-6.39,1.03c-7.43,0-12.17-4.51-12.17-11.75C38.57,35.5,43.17,30,51.73,30
			c1.88,0,3.95,0.33,5.45,0.89l-1.13,5.31c-0.85-0.38-2.11-0.71-3.99-0.71c-3.76,0-6.2,2.68-6.16,6.44c0,4.23,2.82,6.44,6.3,6.44
			c1.69,0,3.01-0.28,4.09-0.71L57.13,52.93z"/>
		<path class="st2" d="M83.26,41.75c0,8.41-5.97,12.27-12.13,12.27c-6.72,0-11.89-4.42-11.89-11.84c0-7.43,4.89-12.17,12.27-12.17
			C78.56,30,83.26,34.84,83.26,41.75z M66.63,41.98c0,3.95,1.65,6.91,4.7,6.91c2.77,0,4.56-2.77,4.56-6.91
			c0-3.43-1.32-6.91-4.56-6.91C67.9,35.07,66.63,38.6,66.63,41.98z"/>
		<path class="st2" d="M87.68,38.08c0-3.38-0.09-5.59-0.19-7.57h6.16l0.23,4.23h0.19c1.18-3.34,3.99-4.75,6.2-4.75
			c0.66,0,0.99,0,1.5,0.09v6.72c-0.52-0.09-1.13-0.19-1.93-0.19c-2.63,0-4.42,1.41-4.89,3.62c-0.09,0.47-0.14,1.03-0.14,1.6V53.5
			h-7.14V38.08z"/>
		<path class="st2" d="M110.67,44.29c0.23,2.96,3.15,4.37,6.49,4.37c2.44,0,4.42-0.33,6.34-0.94l0.94,4.84
			c-2.35,0.94-5.22,1.41-8.32,1.41c-7.8,0-12.27-4.51-12.27-11.7c0-5.83,3.62-12.27,11.61-12.27c7.43,0,10.25,5.78,10.25,11.47
			c0,1.22-0.14,2.3-0.24,2.82H110.67z M119.08,39.4c0-1.74-0.75-4.65-4.04-4.65c-3.01,0-4.23,2.73-4.42,4.65H119.08z"/>
	</g>
	<g>
		<path class="st2" d="M259.16,70.23c-1.27,0.56-3.67,1.03-6.39,1.03c-7.42,0-12.17-4.51-12.17-11.75c0-6.72,4.61-12.22,13.16-12.22
			c1.88,0,3.95,0.33,5.45,0.89l-1.13,5.31c-0.85-0.38-2.11-0.71-3.99-0.71c-3.76,0-6.2,2.68-6.16,6.44c0,4.23,2.82,6.44,6.3,6.44
			c1.69,0,3.01-0.28,4.09-0.71L259.16,70.23z"/>
		<path class="st2" d="M285.29,59.05c0,8.41-5.97,12.27-12.12,12.27c-6.72,0-11.89-4.42-11.89-11.84c0-7.43,4.89-12.17,12.27-12.17
			C280.59,47.3,285.29,52.14,285.29,59.05z M268.65,59.28c0,3.95,1.64,6.91,4.7,6.91c2.77,0,4.56-2.77,4.56-6.91
			c0-3.43-1.32-6.91-4.56-6.91C269.92,52.38,268.65,55.9,268.65,59.28z"/>
		<path class="st2" d="M312.12,37.43v26.51c0,2.58,0.09,5.31,0.19,6.86h-6.34l-0.33-3.38h-0.09c-1.46,2.58-4.23,3.9-7.19,3.9
			c-5.45,0-9.82-4.65-9.82-11.8c-0.05-7.75,4.79-12.22,10.29-12.22c2.82,0,5.03,0.99,6.06,2.58h0.09V37.43H312.12z M304.98,57.55
			c0-0.38-0.05-0.89-0.09-1.27c-0.42-1.93-1.97-3.52-4.18-3.52c-3.24,0-4.93,2.91-4.93,6.53c0,3.9,1.93,6.34,4.89,6.34
			c2.07,0,3.71-1.41,4.14-3.43c0.14-0.52,0.19-1.03,0.19-1.64V57.55z"/>
		<path class="st2" d="M323.36,61.59c0.24,2.96,3.15,4.37,6.49,4.37c2.44,0,4.42-0.33,6.34-0.94l0.94,4.84
			c-2.35,0.94-5.22,1.41-8.32,1.41c-7.8,0-12.27-4.51-12.27-11.7c0-5.83,3.62-12.27,11.61-12.27c7.43,0,10.25,5.78,10.25,11.47
			c0,1.22-0.14,2.3-0.24,2.82H323.36z M331.77,56.7c0-1.74-0.75-4.65-4.04-4.65c-3.01,0-4.23,2.73-4.42,4.65H331.77z"/>
	</g>
	<path class="st3" d="M146.05,57.54L146.05,57.54c0,9.21,3.16,17.67,8.45,24.39h29.99c21.79,0,39.46-17.67,39.46-39.46v0
		c0-9.21-3.16-17.67-8.45-24.39h-29.99C163.72,18.08,146.05,35.74,146.05,57.54z"/>
</g>
</svg>
