<?xml version="1.0" encoding="utf-8"?>
<!-- Generator: Adobe Illustrator 26.2.1, SVG Export Plug-In . SVG Version: 6.00 Build 0)  -->
<svg version="1.1"
	 id="svg2" xmlns:cc="http://creativecommons.org/ns#" xmlns:dc="http://purl.org/dc/elements/1.1/" xmlns:inkscape="http://www.inkscape.org/namespaces/inkscape" xmlns:rdf="http://www.w3.org/1999/02/22-rdf-syntax-ns#" xmlns:sodipodi="http://sodipodi.sourceforge.net/DTD/sodipodi-0.dtd" xmlns:svg="http://www.w3.org/2000/svg"
	 xmlns="http://www.w3.org/2000/svg" xmlns:xlink="http://www.w3.org/1999/xlink" x="0px" y="0px" viewBox="0 0 1000 399.3"
	 style="enable-background:new 0 0 1000 399.3;" xml:space="preserve">
<style type="text/css">
	.st0{fill:#FFFFFF;}
</style>
<path id="path8" inkscape:connector-curvature="0" class="st0" d="M550.6,85.9c-89.8,0-157.8,69.8-157.8,156.2
	c0,91.1,70.8,156.2,157.8,156.2s157.5-65.1,157.5-156.2C708.1,155.7,640.4,85.9,550.6,85.9z M550.6,168.4
	c38.8-0.3,70.5,32.8,70.5,73.7c0,40.6-31.8,73.7-70.5,73.7S480,282.7,480,242.1C480,201.2,511.8,168.4,550.6,168.4L550.6,168.4z"/>
<path id="path10" inkscape:connector-curvature="0" class="st0" d="M1000,343.6c0,30.2-24.5,54.7-54.7,54.7s-54.7-24.5-54.7-54.7
	s24.5-54.7,54.7-54.7S1000,313.4,1000,343.6z"/>
<path id="path12" inkscape:connector-curvature="0" class="st0" d="M840.9,387.9H755V0h85.9V387.9z"/>
<path class="st0" d="M236.9,0h-80.7L0,387.9v0h109.4l18.2-54.7H263l18.2,54.7h109.3L236.9,0z M156.2,252.5l40.4-130.2l40.3,130.2
	H156.2z"/>
</svg>
