<?xml version="1.0" encoding="utf-8"?>
<!-- Generator: Adobe Illustrator 26.2.1, SVG Export Plug-In . SVG Version: 6.00 Build 0)  -->
<svg version="1.1" id="Layer_1" xmlns="http://www.w3.org/2000/svg" xmlns:xlink="http://www.w3.org/1999/xlink" x="0px" y="0px"
	 viewBox="0 0 1000 404.6" style="enable-background:new 0 0 1000 404.6;" xml:space="preserve">
<style type="text/css">
	.st0{fill:#008373;}
	.st1{fill:#FFFFFF;}
</style>
<rect x="220" y="221" class="st0" width="33.2" height="33.2"/>
<path class="st1" d="M0.5,0.5l80.6,28.4v283.8l113.6-65.6L139,221l-35.1-87.4l178.9,62.9v91.4L81.2,404.1L0.5,359.3V0.5z"/>
<path class="st1" d="M403.9,323.5V81.1h69c21,0,37.6,5.1,49.9,15.4s18.4,23.6,18.4,40.1c0,13.7-3.7,25.7-11.2,35.8
	c-7.4,10.1-17.7,17.4-30.8,21.6v0.7c16.3,1.9,29.4,8.1,39.2,18.5s14.7,24,14.7,40.6c0,20.7-7.4,37.5-22.3,50.4
	c-14.9,12.8-33.6,19.3-56.3,19.3H403.9z M432.2,106.8V185h29.1c15.5,0,27.8-3.7,36.7-11.2c8.9-7.5,13.4-18.1,13.4-31.7
	c0-23.5-15.5-35.3-46.5-35.3H432.2z M432.2,210.6v87.2h38.5c16.7,0,29.6-3.9,38.8-11.8c9.2-7.9,13.8-18.7,13.8-32.4
	c0-28.6-19.5-42.9-58.5-42.9h-32.6V210.6z"/>
<path class="st1" d="M603.4,111.9c-5,0-9.2-1.7-12.7-5.1s-5.2-7.7-5.2-12.8c0-5.2,1.7-9.5,5.2-12.9s7.7-5.2,12.7-5.2
	c5.1,0,9.4,1.7,12.9,5.2c3.5,3.4,5.3,7.7,5.3,12.9c0,5-1.8,9.2-5.3,12.7C612.8,110.1,608.5,111.9,603.4,111.9L603.4,111.9z
	 M617,323.4h-27.7V151.7H617V323.4z"/>
<path class="st1" d="M805.3,323.5h-27.7V226c0-36.7-12.4-55.1-39.2-55.1c-13.9,0-25.3,5.2-34.4,15.6c-9.1,10.4-13.6,23.6-13.6,39.5
	v97.4h-27.7V151.7h27.7v28.1h0.7c13.1-21.9,31.7-32.3,55.8-32.3c18.9,0,33.4,6.1,43.4,18.3s15,29.9,15,53V323.5z"/>
<path class="st1" d="M999.5,308.7c0,63.5-30.4,95.3-91.3,95.3c-21.4,0-39.1-3.8-55.1-11.9l7.3-23.8c0,0,18.8,12.5,47.4,12.5
	c42.6,0,63.9-22.2,63.9-67.5v-18.7H971c-13.2,22.1-31.7,32.8-58.2,32.8c-21.5,0-38.8-6.5-52-21.9c-13.1-15.4-19.7-36-19.7-61.9
	c0-29.4,7.1-52.8,21.2-70.1c14.1-17.4,33.5-26,58.1-26c23.3,0,39.4,9.4,50.6,28.1h0.7v-23.9h27.7L999.5,308.7z M971.8,245.1V221
	c0-13.7-4.6-25.5-13.9-35.3c-9.3-9.8-20.1-14.7-33.9-14.7c-17.1,0-30.5,6.2-40.2,18.7s-14.5,29.9-14.5,52.3
	c0,19.3,4.6,33.3,13.9,44.8c9.3,11.5,21.6,17.3,36.9,17.3c15.5,0,27.4-5.5,37.1-16.6C966.9,276.5,971.8,262.4,971.8,245.1
	L971.8,245.1z"/>
</svg>
